<svg xmlns="http://www.w3.org/2000/svg" viewBox="0 0 11 11">
  <path shape-rendering="crispEdges" fill="#00000000" d="M0 0h1v1H0zM1 0h1v1H1z" />
  <path shape-rendering="crispEdges" d="M2 0h1v1H2zM3 0h1v1H3zM4 0h1v1H4z" />
  <path shape-rendering="crispEdges" fill="#00000000" d="M5 0h1v1H5z" />
  <path shape-rendering="crispEdges" d="M6 0h1v1H6zM7 0h1v1H7zM8 0h1v1H8z" />
  <path shape-rendering="crispEdges" fill="#00000000" d="M9 0h1v1H9zM10 0h1v1h-1zM0 1h1v1H0z" />
  <path shape-rendering="crispEdges" d="M1 1h1v1H1z" />
  <path shape-rendering="crispEdges" fill="#ed1c24" d="M2 1h1v1H2zM3 1h1v1H3zM4 1h1v1H4z" />
  <path shape-rendering="crispEdges" d="M5 1h1v1H5z" />
  <path shape-rendering="crispEdges" fill="#ed1c24" d="M6 1h1v1H6zM7 1h1v1H7zM8 1h1v1H8z" />
  <path shape-rendering="crispEdges" d="M9 1h1v1H9z" />
  <path shape-rendering="crispEdges" fill="#00000000" d="M10 1h1v1h-1z" />
  <path shape-rendering="crispEdges" d="M0 2h1v1H0z" />
  <path shape-rendering="crispEdges" fill="#ed1c24" d="M1 2h1v1H1zM2 2h1v1H2zM3 2h1v1H3zM4 2h1v1H4zM5 2h1v1H5zM6 2h1v1H6z" />
  <path shape-rendering="crispEdges" fill="#fff" d="M7 2h1v1H7z" />
  <path shape-rendering="crispEdges" fill="#ed1c24" d="M8 2h1v1H8zM9 2h1v1H9z" />
  <path shape-rendering="crispEdges" d="M10 2h1v1h-1zM0 3h1v1H0z" />
  <path shape-rendering="crispEdges" fill="#ed1c24" d="M1 3h1v1H1zM2 3h1v1H2zM3 3h1v1H3zM4 3h1v1H4zM5 3h1v1H5zM6 3h1v1H6zM7 3h1v1H7z" />
  <path shape-rendering="crispEdges" fill="#fff" d="M8 3h1v1H8z" />
  <path shape-rendering="crispEdges" fill="#ed1c24" d="M9 3h1v1H9z" />
  <path shape-rendering="crispEdges" d="M10 3h1v1h-1zM0 4h1v1H0z" />
  <path shape-rendering="crispEdges" fill="#ed1c24" d="M1 4h1v1H1zM2 4h1v1H2zM3 4h1v1H3zM4 4h1v1H4zM5 4h1v1H5zM6 4h1v1H6zM7 4h1v1H7zM8 4h1v1H8zM9 4h1v1H9z" />
  <path shape-rendering="crispEdges" d="M10 4h1v1h-1zM0 5h1v1H0z" />
  <path shape-rendering="crispEdges" fill="#ed1c24" d="M1 5h1v1H1zM2 5h1v1H2zM3 5h1v1H3zM4 5h1v1H4zM5 5h1v1H5zM6 5h1v1H6zM7 5h1v1H7zM8 5h1v1H8zM9 5h1v1H9z" />
  <path shape-rendering="crispEdges" d="M10 5h1v1h-1z" />
  <path shape-rendering="crispEdges" fill="#00000000" d="M0 6h1v1H0z" />
  <path shape-rendering="crispEdges" d="M1 6h1v1H1z" />
  <path shape-rendering="crispEdges" fill="#ed1c24" d="M2 6h1v1H2zM3 6h1v1H3zM4 6h1v1H4zM5 6h1v1H5zM6 6h1v1H6zM7 6h1v1H7zM8 6h1v1H8z" />
  <path shape-rendering="crispEdges" d="M9 6h1v1H9z" />
  <path shape-rendering="crispEdges" fill="#00000000" d="M10 6h1v1h-1zM0 7h1v1H0zM1 7h1v1H1z" />
  <path shape-rendering="crispEdges" d="M2 7h1v1H2z" />
  <path shape-rendering="crispEdges" fill="#ed1c24" d="M3 7h1v1H3zM4 7h1v1H4zM5 7h1v1H5zM6 7h1v1H6zM7 7h1v1H7z" />
  <path shape-rendering="crispEdges" d="M8 7h1v1H8z" />
  <path shape-rendering="crispEdges" fill="#00000000" d="M9 7h1v1H9zM10 7h1v1h-1zM0 8h1v1H0zM1 8h1v1H1zM2 8h1v1H2z" />
  <path shape-rendering="crispEdges" d="M3 8h1v1H3z" />
  <path shape-rendering="crispEdges" fill="#ed1c24" d="M4 8h1v1H4zM5 8h1v1H5zM6 8h1v1H6z" />
  <path shape-rendering="crispEdges" d="M7 8h1v1H7z" />
  <path shape-rendering="crispEdges" fill="#00000000" d="M8 8h1v1H8zM9 8h1v1H9zM10 8h1v1h-1zM0 9h1v1H0zM1 9h1v1H1zM2 9h1v1H2zM3 9h1v1H3z" />
  <path shape-rendering="crispEdges" d="M4 9h1v1H4z" />
  <path shape-rendering="crispEdges" fill="#ed1c24" d="M5 9h1v1H5z" />
  <path shape-rendering="crispEdges" d="M6 9h1v1H6z" />
  <path shape-rendering="crispEdges" fill="#00000000" d="M7 9h1v1H7zM8 9h1v1H8zM9 9h1v1H9zM10 9h1v1h-1zM0 10h1v1H0zM1 10h1v1H1zM2 10h1v1H2zM3 10h1v1H3zM4 10h1v1H4z" />
  <path shape-rendering="crispEdges" d="M5 10h1v1H5z" />
  <path shape-rendering="crispEdges" fill="#00000000" d="M6 10h1v1H6zM7 10h1v1H7zM8 10h1v1H8zM9 10h1v1H9zM10 10h1v1h-1z" />
</svg>